<svg width="50" height="50" viewBox="0 0 50 50" fill="none" xmlns="http://www.w3.org/2000/svg">
<g clip-path="url(#clip0_81_34)">
<path d="M48.7254 22.804L27.1957 1.2751C25.9566 0.0352539 23.9457 0.0352539 22.7047 1.2751L18.2344 5.74619L23.9055 11.4173C25.2238 10.9724 26.7348 11.2708 27.7852 12.3212C28.841 13.3782 29.1371 14.9021 28.6813 16.2247L34.1469 21.6907C35.4691 21.2349 36.9953 21.5294 38.0508 22.5872C39.5273 24.0626 39.5273 26.4544 38.0508 27.9306C37.6999 28.2816 37.2833 28.5601 36.8247 28.7501C36.3662 28.9401 35.8747 29.0379 35.3783 29.0379C34.882 29.0379 34.3905 28.9401 33.9319 28.7501C33.4734 28.5601 33.0568 28.2816 32.7059 27.9306C32.1787 27.4031 31.8193 26.7314 31.673 26.0001C31.5267 25.2688 31.6 24.5105 31.8836 23.8208L26.7867 18.7239L26.7859 32.1384C27.1557 32.3205 27.4934 32.5617 27.7855 32.8524C29.2613 34.3278 29.2613 36.7188 27.7855 38.1974C26.3094 39.6728 23.9168 39.6728 22.4422 38.1974C20.9664 36.7192 20.9664 34.3282 22.4422 32.8524C22.7958 32.4983 23.2163 32.2181 23.6793 32.0282V18.4896C23.2159 18.3002 22.7953 18.0198 22.4422 17.6649C21.3242 16.5478 21.0551 14.9071 21.6285 13.5337L16.0375 7.94268L1.27501 22.7044C0.679426 23.3002 0.344849 24.1081 0.344849 24.9505C0.344849 25.7929 0.679426 26.6008 1.27501 27.1966L22.8051 48.7255C24.0449 49.9653 26.0551 49.9653 27.2969 48.7255L48.7258 27.2966C49.3212 26.7006 49.6557 25.8927 49.6556 25.0502C49.6555 24.2078 49.321 23.3998 48.7254 22.804Z" fill="#F34F29"/>
</g>
<defs>
<clipPath id="clip0_81_34">
<rect width="50" height="50" fill="white"/>
</clipPath>
</defs>
</svg>
