<svg width="58" height="58" viewBox="0 0 58 58" fill="none" xmlns="http://www.w3.org/2000/svg">
<path fill-rule="evenodd" clip-rule="evenodd" d="M29 2.31226C13.8896 2.31226 1.63666 14.5625 1.63666 29.6756C1.63666 41.7658 9.47708 52.0223 20.3494 55.641C21.7164 55.8947 22.2185 55.0474 22.2185 54.3247C22.2185 53.6722 22.1931 51.5166 22.1813 49.2302C14.5688 50.8854 12.9625 46.0017 12.9625 46.0017C11.7178 42.8389 9.92431 41.9978 9.92431 41.9978C7.44119 40.2995 10.1115 40.3349 10.1115 40.3349C12.8588 40.5275 14.306 43.1547 14.306 43.1547C16.7466 47.337 20.7073 46.1281 22.2688 45.4294C22.5144 43.6608 23.2235 42.4532 24.0061 41.7699C17.9283 41.0789 11.5388 38.7322 11.5388 28.2473C11.5388 25.2599 12.6082 22.8189 14.3586 20.9022C14.074 20.2134 13.1374 17.4303 14.6232 13.6612C14.6232 13.6612 16.9206 12.9258 22.1496 16.4661C24.3328 15.8593 26.6741 15.5544 29 15.544C31.3245 15.5544 33.6672 15.8584 35.8544 16.4652C41.0771 12.9249 43.3717 13.6603 43.3717 13.6603C44.8612 17.429 43.9245 20.2125 43.6404 20.9013C45.3949 22.818 46.4566 25.259 46.4566 28.2464C46.4566 38.7562 40.0553 41.0699 33.9621 41.7477C34.9441 42.5969 35.8186 44.2626 35.8186 46.815C35.8186 50.4763 35.7869 53.4229 35.7869 54.3242C35.7869 55.0524 36.2799 55.9056 37.6664 55.6369C48.5324 52.0146 56.3637 41.7613 56.3637 29.6756C56.3633 14.5634 44.1117 2.31226 29 2.31226Z" fill="#181616"/>
<path d="M12.0005 41.5994C11.9403 41.7354 11.7264 41.7761 11.5315 41.6833C11.3322 41.5944 11.2212 41.4091 11.2855 41.2727C11.3444 41.1323 11.5587 41.0937 11.7567 41.1875C11.9561 41.2768 12.0694 41.4639 12.0001 41.5999L12.0005 41.5994ZM13.1089 42.836C12.9788 42.957 12.7237 42.9008 12.5506 42.7091C12.3712 42.5188 12.3377 42.2637 12.4704 42.1409C12.6054 42.0204 12.8529 42.0775 13.0323 42.2678C13.2108 42.4608 13.2462 42.7137 13.1093 42.8365L13.1089 42.836ZM14.1882 44.4115C14.0206 44.5284 13.746 44.4192 13.5765 44.1759C13.4088 43.9321 13.4088 43.6399 13.581 43.5234C13.75 43.4065 14.0206 43.5121 14.1927 43.7531C14.3595 44.0001 14.3595 44.2928 14.1882 44.4115ZM15.6659 45.9345C15.5163 46.0999 15.1964 46.0555 14.9626 45.8303C14.7238 45.6096 14.6572 45.2956 14.8072 45.1306C14.9594 44.9648 15.2807 45.011 15.5159 45.2349C15.7547 45.4551 15.8267 45.7695 15.6668 45.934L15.6659 45.9345ZM17.7049 46.8185C17.6383 47.0329 17.3311 47.1303 17.0207 47.0387C16.7112 46.9449 16.5087 46.6944 16.5721 46.4778C16.6355 46.2616 16.945 46.1606 17.2572 46.258C17.5667 46.3514 17.7693 46.6006 17.7049 46.8185ZM19.9447 46.9821C19.9524 47.2078 19.6896 47.3944 19.3647 47.399C19.0371 47.4067 18.772 47.2236 18.7689 47.0016C18.7689 46.7737 19.0262 46.5892 19.3534 46.5829C19.6783 46.577 19.9452 46.7583 19.9452 46.9816L19.9447 46.9821ZM22.0282 46.6278C22.0672 46.8475 21.841 47.0736 21.518 47.1339C21.2008 47.1928 20.9062 47.056 20.8655 46.838C20.8265 46.6124 21.0567 46.3862 21.3739 46.3278C21.6974 46.2721 21.9874 46.4044 22.0282 46.6278Z" fill="#181616"/>
</svg>
