<svg width="30" height="30" viewBox="0 0 30 30" fill="none" xmlns="http://www.w3.org/2000/svg">
<path d="M12.3237 15.8946C12.3237 15.8946 11.554 16.3425 12.8723 16.4939C14.4694 16.6763 15.2857 16.65 17.0454 16.3174C17.0454 16.3174 17.5092 16.6074 18.1552 16.8586C14.2092 18.5492 9.22454 16.7606 12.3237 15.8946ZM11.8411 13.688C11.8411 13.688 10.9777 14.3276 12.297 14.464C14.0032 14.64 15.3502 14.6546 17.6827 14.2055C17.6827 14.2055 18.0045 14.5327 18.5114 14.711C13.7414 16.1065 8.42836 14.821 11.8411 13.688Z" fill="#0074BD"/>
<path d="M15.9058 9.9448C16.8787 11.0646 15.6508 12.0715 15.6508 12.0715C15.6508 12.0715 18.1195 10.7972 16.9858 9.2009C15.9267 7.71285 15.1151 6.97387 19.5103 4.4248C19.5103 4.4248 12.6108 6.14746 15.9058 9.9448Z" fill="#EA2D2E"/>
<path d="M21.1247 17.5268C21.1247 17.5268 21.6947 17.9967 20.497 18.36C18.2198 19.0498 11.018 19.2579 9.01757 18.3875C8.29898 18.0746 9.64734 17.6405 10.0713 17.5493C10.5136 17.4535 10.7662 17.471 10.7662 17.471C9.96656 16.9078 5.5971 18.5771 8.54695 19.0559C16.5916 20.3597 23.2111 18.4685 21.1247 17.5268ZM12.6942 11.4017C12.6942 11.4017 9.03117 12.2719 11.3972 12.5883C12.3966 12.7219 14.3873 12.6912 16.2431 12.5356C17.7593 12.4083 19.2809 12.1362 19.2809 12.1362C19.2809 12.1362 18.7467 12.3654 18.3598 12.6293C14.6393 13.6078 7.45359 13.152 9.52242 12.1517C11.2716 11.3053 12.6942 11.4017 12.6942 11.4017ZM19.2656 15.0743C23.0473 13.1098 21.2986 11.2217 20.0782 11.476C19.7798 11.5383 19.6458 11.5922 19.6458 11.5922C19.6458 11.5922 19.7571 11.4178 19.9687 11.3431C22.3833 10.4946 24.2398 13.8464 19.1902 15.1739C19.1902 15.1739 19.248 15.1214 19.2656 15.0743Z" fill="#0074BD"/>
<path d="M16.9861 0.307739C16.9861 0.307739 19.0802 2.40282 14.9995 5.62383C11.7272 8.20829 14.2533 9.68157 14.9981 11.3656C13.088 9.64196 11.6869 8.12461 12.6267 6.71274C14.0069 4.6404 17.8308 3.63516 16.9861 0.307739Z" fill="#EA2D2E"/>
<path d="M13.0662 20.3998C16.6952 20.6318 22.2698 20.2706 22.4018 18.5533C22.4018 18.5533 22.1482 19.2042 19.402 19.7208C16.3041 20.3039 12.4826 20.2362 10.2166 19.8621C10.2166 19.8621 10.6807 20.2465 13.0662 20.3998Z" fill="#0074BD"/>
<path d="M22.2342 23.48H22.1236V23.4181H22.4212V23.48H22.3111V23.7886H22.234L22.2342 23.48ZM22.8284 23.4954H22.8269L22.7173 23.7886H22.6666L22.5576 23.4954H22.5565V23.7886H22.4834V23.4181H22.5905L22.6915 23.6803L22.7927 23.4181H22.8991V23.7886H22.8284V23.4954ZM12.4713 26.9618C12.1291 27.2586 11.7673 27.4254 11.4422 27.4254C10.9795 27.4254 10.7285 27.1475 10.7285 26.7024C10.7285 26.2207 10.9971 25.868 12.0734 25.868H12.4711L12.4713 26.9618ZM13.4161 28.0278V24.7285C13.4161 23.885 12.9349 23.3286 11.7762 23.3286C11.0998 23.3286 10.5068 23.4959 10.0247 23.7087L10.1634 24.293C10.5431 24.1536 11.0341 24.0242 11.516 24.0242C12.184 24.0242 12.4711 24.293 12.4711 24.8494V25.2664H12.1373C10.5152 25.2664 9.78327 25.8957 9.78327 26.8421C9.78327 27.6575 10.2656 28.1208 11.1738 28.1208C11.7574 28.1208 12.1936 27.8799 12.6007 27.5271L12.6748 28.028L13.4161 28.0278ZM16.5689 28.0278H15.3907L13.9725 23.4132H15.0016L15.8819 26.2489L16.0776 27.1008C16.522 25.8685 16.837 24.6174 16.9945 23.4134H17.9955C17.7276 24.9324 17.2448 26.6004 16.5689 28.0278ZM21.0895 26.9618C20.7462 27.2586 20.3841 27.4254 20.0601 27.4254C19.597 27.4254 19.3462 27.1475 19.3462 26.7024C19.3462 26.2207 19.6155 25.868 20.6906 25.868H21.0893L21.0895 26.9618ZM22.0348 28.0278V24.7285C22.0348 23.885 21.5522 23.3286 20.3944 23.3286C19.7173 23.3286 19.1245 23.4959 18.6424 23.7087L18.7814 24.293C19.1611 24.1536 19.6528 24.0242 20.1347 24.0242C20.8017 24.0242 21.0895 24.293 21.0895 24.8494V25.2664H20.7558C19.1332 25.2664 18.4015 25.8957 18.4015 26.8421C18.4015 27.6575 18.8834 28.1208 19.7913 28.1208C20.3751 28.1208 20.8106 27.8799 21.2189 27.5271L21.2934 28.028L22.0348 28.0278ZM8.74733 28.812C8.47851 29.2055 8.04304 29.517 7.56679 29.6925L7.10062 29.1429C7.46319 28.9568 7.77374 28.6566 7.91835 28.3768C8.04304 28.1276 8.09483 27.8072 8.09483 27.0406V21.7714H9.0989V26.9682C9.0989 27.9936 9.01733 28.4082 8.74733 28.812Z" fill="#EA2D2E"/>
</svg>
