<svg width="30" height="30" viewBox="0 0 30 30" fill="none" xmlns="http://www.w3.org/2000/svg">
<g clip-path="url(#clip0_2_46)">
<path d="M0.330017 0.329956H29.67V29.6702H0.330017V0.329956Z" fill="#F0DB4F"/>
<path d="M27.2688 22.6725C27.0539 21.334 26.1811 20.2097 23.5957 19.1613C22.6976 18.7486 21.6963 18.4531 21.3979 17.7724C21.292 17.3763 21.2779 17.1532 21.345 16.9135C21.5374 16.1353 22.4662 15.8928 23.2024 16.1159C23.6765 16.2748 24.1254 16.6402 24.3961 17.2231C25.6622 16.4032 25.6596 16.4086 26.5436 15.8452C26.22 15.3434 26.0472 15.1118 25.8354 14.8971C25.0739 14.0466 24.0363 13.6085 22.3769 13.642L21.5126 13.7538C20.6843 13.9631 19.8949 14.3979 19.432 14.9808C18.0431 16.5567 18.4392 19.3149 20.1293 20.4499C21.7943 21.6996 24.2402 21.9839 24.5526 23.1525C24.8566 24.5831 23.5012 25.0463 22.154 24.8817C21.1612 24.6753 20.609 24.1706 20.0121 23.2531C18.9133 23.8889 18.9133 23.8889 17.7836 24.5386C18.0515 25.1243 18.333 25.3894 18.7821 25.8968C20.9074 28.0526 26.2258 27.9467 27.1797 24.6837C27.2184 24.5717 27.4753 23.8245 27.2688 22.6725ZM16.2801 13.8148H13.5358L13.5246 20.9098C13.5246 22.4187 13.6026 23.802 13.3572 24.226C12.9558 25.0599 11.9154 24.9565 11.4412 24.7948C10.9586 24.5576 10.7133 24.2203 10.429 23.7436C10.3509 23.6067 10.2923 23.5008 10.2726 23.4926L8.04138 24.859C8.4124 25.6205 8.95896 26.2814 9.65904 26.7108C10.7048 27.3385 12.1104 27.5309 13.5804 27.1934C14.5371 26.9147 15.3626 26.3374 15.7947 25.4588C16.4196 24.3068 16.2855 22.9125 16.2799 21.3703C16.294 18.8543 16.2801 16.3388 16.2801 13.8148Z" fill="#323330"/>
</g>
<defs>
<clipPath id="clip0_2_46">
<rect width="30" height="30" fill="white"/>
</clipPath>
</defs>
</svg>
