<svg width="30" height="30" viewBox="0 0 30 30" fill="none" xmlns="http://www.w3.org/2000/svg">
<g clip-path="url(#clip0_2_87)">
<path d="M0 17.4015H0.994219V13.4764L2.53312 16.8979C2.7143 17.3127 2.9625 17.4582 3.45047 17.4582C3.93844 17.4582 4.17656 17.3127 4.35773 16.8979L5.89664 13.4764V17.4013H6.89086V13.483C6.89086 13.1003 6.73805 12.9153 6.42211 12.8202C5.66672 12.5849 5.16047 12.7881 4.93078 13.2981L3.42117 16.6754L1.95914 13.2981C1.73953 12.7881 1.2232 12.5849 0.46875 12.8202C0.152812 12.9153 0 13.1003 0 13.483L0 17.4015ZM7.71797 14.2063H8.71125V16.3689C8.70211 16.4861 8.74875 16.7617 9.29344 16.7708H11.4551V14.1953H12.4512C12.4559 14.1953 12.4493 17.7071 12.4493 17.7219C12.4547 18.5879 11.3754 18.7757 10.8773 18.7904H7.73906V18.122L10.883 18.1211C11.5228 18.0543 11.4469 17.7355 11.4469 17.6293V17.3685H9.33469C8.35148 17.3593 7.72617 16.93 7.71797 16.4364C7.71703 16.3916 7.73906 14.2283 7.71797 14.2063Z" fill="#00618A"/>
<path d="M13.2166 17.4015H16.0748C16.409 17.4015 16.7341 17.3309 16.9922 17.2102C17.4225 17.0134 17.632 16.7452 17.632 16.3946V15.6685C17.632 15.3819 17.3939 15.1138 16.9251 14.9361C16.6769 14.84 16.3704 14.7896 16.0746 14.7896H14.8697C14.4686 14.7896 14.2774 14.6687 14.2298 14.4015C14.2207 14.3694 14.2207 14.3438 14.2207 14.3117V13.8594C14.2207 13.8338 14.2207 13.8081 14.2298 13.7762C14.2774 13.573 14.3826 13.5153 14.7361 13.4832L14.8322 13.4769H17.6702V12.815H14.88C14.479 12.815 14.2685 12.8406 14.077 12.8975C13.4847 13.0824 13.2265 13.3754 13.2265 13.8854V14.465C13.2265 14.9108 13.7327 15.2935 14.5833 15.3823L14.8699 15.3952H15.9026C15.941 15.3952 15.9785 15.3952 16.0078 15.4016C16.3228 15.4271 16.4564 15.4848 16.5525 15.5994C16.6019 15.6451 16.6303 15.7102 16.6284 15.777V16.3576C16.6284 16.4272 16.5808 16.517 16.4857 16.5929C16.3997 16.6698 16.256 16.7202 16.0654 16.7331L15.9602 16.7394H13.2166V17.4015ZM23.8331 16.2479C23.8331 16.9299 24.3403 17.3117 25.3619 17.3886L25.6495 17.4015H28.2396V16.7387H25.6303C25.0472 16.7387 24.8273 16.5922 24.8273 16.2416V12.8136H23.834V16.2477L23.8331 16.2479ZM18.2667 16.2826V13.9196C18.2667 13.3198 18.6888 12.9556 19.5218 12.841C19.6106 12.8282 19.7003 12.8218 19.7901 12.8218H21.6761C21.7722 12.8218 21.8583 12.8281 21.9546 12.841C22.7878 12.9554 23.209 13.3198 23.209 13.9196V16.2826C23.209 16.7696 23.0304 17.0298 22.6176 17.1999L23.5973 18.0835H22.4428L21.6508 17.3684L20.8535 17.4188H19.7906C19.5931 17.4181 19.3965 17.3904 19.2065 17.3363C18.574 17.1643 18.2672 16.832 18.2672 16.2826H18.2667ZM19.3397 16.2249C19.3397 16.257 19.3488 16.2889 19.3589 16.3276C19.4165 16.6023 19.6748 16.7551 20.0674 16.7551H20.9702L20.1408 16.0063H21.2953L22.0186 16.6599C22.1522 16.5884 22.2391 16.4804 22.2703 16.3405C22.2794 16.3084 22.2794 16.2765 22.2794 16.2444V13.9784C22.2794 13.9529 22.2794 13.9208 22.2703 13.8887C22.2126 13.6332 21.9543 13.4867 21.5709 13.4867H20.0676C19.6272 13.4867 19.3399 13.678 19.3399 13.9784L19.3397 16.2249Z" fill="#E48E00"/>
<path d="M29.1138 11.7141C28.5033 11.6977 28.0362 11.7544 27.637 11.9229C27.5236 11.9705 27.3422 11.9714 27.3239 12.1135C27.3862 12.1793 27.3963 12.2773 27.4458 12.357C27.5409 12.5117 27.7022 12.7177 27.8458 12.8257L28.3319 13.1735C28.6303 13.3557 28.9645 13.4602 29.253 13.6423C29.4225 13.7503 29.5908 13.8858 29.7565 14.0077C29.838 14.0672 29.8929 14.1614 30 14.1989V14.1816C29.9442 14.1101 29.9294 14.0121 29.8781 13.9381L29.6519 13.7119C29.4314 13.4189 29.1511 13.1616 28.8527 12.9474C28.6146 12.777 28.0837 12.5464 27.9839 12.2698L27.9666 12.2524C28.1351 12.2342 28.3329 12.1728 28.4876 12.1315C28.7494 12.061 28.9828 12.0792 29.2521 12.0096L29.6175 11.9044V11.8357C29.4811 11.6956 29.3841 11.5107 29.2348 11.3834C28.8466 11.0529 28.4217 10.7215 27.9841 10.445C27.7416 10.2921 27.4423 10.1932 27.1849 10.0632C27.0989 10.0193 26.9468 9.99729 26.8891 9.92393C26.7546 9.7519 26.6812 9.53393 26.5769 9.33331L25.9516 8.01308C25.8199 7.7119 25.7337 7.41425 25.5689 7.14425C24.7807 5.84698 23.9311 5.06417 22.6153 4.29518C22.3362 4.13136 21.9982 4.06714 21.6431 3.983L21.0691 3.94831C20.9529 3.89886 20.8319 3.75612 20.7223 3.68745C20.2866 3.41182 19.1686 2.81323 18.8454 3.6005C18.6422 4.09761 19.1503 4.58276 19.3324 4.83472C19.4597 5.01143 19.6235 5.20925 19.7142 5.40776C19.7747 5.53784 19.7848 5.66862 19.8361 5.8069C19.9624 6.14745 20.0723 6.51729 20.2362 6.83229C20.3187 6.99167 20.4091 7.15925 20.5137 7.30104C20.5776 7.388 20.6876 7.42737 20.7049 7.5619C20.5978 7.71214 20.5915 7.94464 20.531 8.13495C20.2591 8.99089 20.3616 10.0547 20.7572 10.6892C20.8781 10.8832 21.1636 11.3007 21.5564 11.1406C21.8998 11.0004 21.8229 10.5675 21.9208 10.1848C21.9438 10.0988 21.93 10.0346 21.9731 9.9769V9.99425L22.2862 10.6196C22.5178 10.9922 22.928 11.3813 23.276 11.644C23.4572 11.7804 23.5992 12.0167 23.8326 12.0964V12.0781H23.8153C23.7696 12.0085 23.6991 11.9792 23.6414 11.9224C23.505 11.7889 23.3538 11.6232 23.2423 11.4701C22.9254 11.0407 22.6453 10.5701 22.3908 10.0803C22.2689 9.84683 22.1627 9.58854 22.0603 9.35065C22.0209 9.25901 22.0219 9.12003 21.9394 9.07315C21.8269 9.24706 21.6612 9.38815 21.574 9.59417C21.4348 9.92276 21.4174 10.3247 21.3651 10.7405L21.3305 10.7578C21.0888 10.6992 21.0035 10.4503 20.914 10.2368C20.6859 9.69659 20.644 8.82589 20.8444 8.20432C20.8957 8.04331 21.1301 7.53589 21.0349 7.38776C20.9901 7.2394 20.8409 7.15339 20.7574 7.03995C20.6483 6.88784 20.5551 6.72496 20.4792 6.55386C20.2933 6.13175 20.2064 5.65948 20.0105 5.23362C19.9172 5.02948 19.7587 4.82347 19.6287 4.64229C19.4841 4.4419 19.3228 4.29448 19.2112 4.05167C19.1719 3.96565 19.118 3.82737 19.1766 3.73854C19.1948 3.67901 19.2223 3.6544 19.2808 3.63518C19.3816 3.55737 19.6626 3.66073 19.7669 3.70386C20.0461 3.82011 20.2788 3.93003 20.5148 4.08659C20.6273 4.16159 20.7419 4.30714 20.8793 4.34745H21.0358C21.2803 4.40323 21.5541 4.36386 21.783 4.43347C22.1869 4.55604 22.5494 4.74753 22.8771 4.95542C23.8786 5.58706 24.6973 6.48706 25.2574 7.56097C25.3481 7.73393 25.3866 7.8987 25.4662 8.08198C25.6266 8.45182 25.8279 8.83268 25.9873 9.19433C26.1466 9.55597 26.3013 9.91948 26.5256 10.2197C26.6437 10.3772 27.1005 10.4614 27.3075 10.5492C27.453 10.6107 27.6912 10.6746 27.8285 10.7581C28.0922 10.9165 28.3467 11.1049 28.594 11.2791C28.7166 11.367 29.0958 11.5575 29.115 11.7139L29.1138 11.7141ZM21.3473 5.09487C21.2422 5.09308 21.1373 5.10473 21.0351 5.12956V5.1469H21.0525C21.113 5.27229 21.2201 5.35292 21.2951 5.46003L21.469 5.82448L21.4863 5.80807C21.5944 5.73214 21.6429 5.61026 21.6429 5.42534C21.5991 5.37964 21.5934 5.32292 21.5559 5.26878C21.5065 5.19636 21.4106 5.15628 21.3473 5.09487Z" fill="#00618A"/>
</g>
<defs>
<clipPath id="clip0_2_87">
<rect width="30" height="30" fill="white"/>
</clipPath>
</defs>
</svg>
