<svg width="49" height="49" viewBox="0 0 49 49" fill="none" xmlns="http://www.w3.org/2000/svg">
<g clip-path="url(#clip0_79_2)">
<path d="M24.5 49C38.031 49 49 38.031 49 24.5C49 10.969 38.031 0 24.5 0C10.969 0 0 10.969 0 24.5C0 38.031 10.969 49 24.5 49Z" fill="black"/>
<path d="M40.6995 42.8803L18.8218 14.7H14.7V34.2919H17.9976V18.8875L38.1105 44.8744C39.0168 44.2678 39.8817 43.6017 40.6995 42.8803Z" fill="url(#paint0_linear_79_2)"/>
<path d="M31.3056 14.7H34.5722V34.3H31.3056V14.7Z" fill="url(#paint1_linear_79_2)"/>
</g>
<defs>
<linearGradient id="paint0_linear_79_2" x1="29.6722" y1="31.7138" x2="39.3361" y2="43.6916" gradientUnits="userSpaceOnUse">
<stop stop-color="white"/>
<stop offset="1" stop-color="white" stop-opacity="0"/>
</linearGradient>
<linearGradient id="paint1_linear_79_2" x1="32.9388" y1="14.6999" x2="32.8841" y2="29.0937" gradientUnits="userSpaceOnUse">
<stop stop-color="white"/>
<stop offset="1" stop-color="white" stop-opacity="0"/>
</linearGradient>
<clipPath id="clip0_79_2">
<rect width="49" height="49" fill="white"/>
</clipPath>
</defs>
</svg>
