<svg width="30" height="30" viewBox="0 0 30 30" fill="none" xmlns="http://www.w3.org/2000/svg">
<g clip-path="url(#clip0_2_58)">
<g clip-path="url(#clip1_2_58)">
<path d="M26.7922 12.9502C26.7801 12.9502 26.7682 12.9538 26.7582 12.9605L26.2083 13.2816C26.198 13.288 26.1895 13.297 26.1836 13.3077C26.1778 13.3184 26.1749 13.3304 26.1751 13.3425V13.9847C26.1751 14.0119 26.1879 14.0325 26.2083 14.0461L26.7582 14.3668C26.7683 14.3734 26.7801 14.377 26.7922 14.377C26.8043 14.377 26.8161 14.3734 26.8261 14.3668L27.3751 14.0461C27.3855 14.0396 27.3941 14.0305 27.4001 14.0197C27.406 14.0089 27.4091 13.9968 27.409 13.9845V13.343C27.4091 13.3308 27.406 13.3188 27.4 13.3081C27.3941 13.2974 27.3855 13.2884 27.3751 13.2821L26.8259 12.9607C26.8159 12.9541 26.8042 12.9502 26.7922 12.9502ZM14.8172 16.7902C14.7172 16.7902 14.6176 16.8146 14.5327 16.8624L11.8259 18.439C11.7391 18.4899 11.6672 18.5627 11.6173 18.65C11.5674 18.7373 11.5412 18.8362 11.5414 18.9368V22.0829C11.5414 22.2877 11.6497 22.4789 11.8259 22.5816L12.5384 22.9908C12.8844 23.1614 13.0065 23.161 13.1623 23.161C13.6709 23.161 13.9627 22.8471 13.9627 22.3079V19.2036C13.9624 19.1819 13.9537 19.1613 13.9385 19.146C13.9233 19.1306 13.9028 19.1218 13.8811 19.1213H13.5357C13.514 19.1217 13.4933 19.1304 13.478 19.1458C13.4627 19.1612 13.454 19.1819 13.4536 19.2036V22.3086C13.4536 22.5474 13.2031 22.7867 12.803 22.5821L12.0636 22.152C12.0364 22.1384 12.0226 22.1037 12.0226 22.0765V18.9298C12.0226 18.9026 12.0364 18.8689 12.0636 18.855L14.7694 17.2854C14.7898 17.2718 14.824 17.2718 14.8512 17.2854L17.5578 18.855C17.5847 18.8689 17.5981 18.8958 17.5981 18.93V22.0763C17.5981 22.1103 17.5847 22.1382 17.5578 22.1518L14.8512 23.7284C14.8308 23.742 14.7966 23.742 14.7694 23.7284L14.0778 23.3114C14.0574 23.2979 14.0302 23.2911 14.0098 23.3046C13.82 23.4139 13.7867 23.4282 13.6034 23.4896C13.5626 23.5032 13.4949 23.5301 13.6304 23.6051L14.5327 24.1446C14.6208 24.1922 14.7155 24.2194 14.8172 24.2194C14.919 24.2194 15.0204 24.1925 15.1018 24.1585L17.8086 22.5818C17.8954 22.5308 17.9673 22.4578 18.0172 22.3703C18.0672 22.2829 18.0933 22.1838 18.0931 22.0831V18.9368C18.0931 18.732 17.9848 18.5414 17.8086 18.439L15.1018 16.8624C15.0146 16.8145 14.9167 16.7896 14.8172 16.7902ZM19.043 18.2269C18.9041 18.2275 18.7711 18.2832 18.6732 18.3817C18.5754 18.4803 18.5206 18.6137 18.5211 18.7526C18.5207 18.8915 18.5755 19.0248 18.6733 19.1234C18.7712 19.2219 18.9042 19.2775 19.043 19.2781C19.3283 19.2781 19.5652 19.0393 19.5652 18.7526C19.5645 18.614 19.5093 18.4813 19.4117 18.383C19.314 18.2847 19.1816 18.2285 19.043 18.2269ZM19.036 18.3157C19.0938 18.315 19.1511 18.3258 19.2047 18.3475C19.2583 18.3691 19.307 18.4012 19.3481 18.4418C19.3891 18.4825 19.4217 18.5309 19.4439 18.5842C19.4661 18.6376 19.4774 18.6948 19.4773 18.7526C19.4773 18.9917 19.2804 19.1965 19.0362 19.1965C18.799 19.1965 18.6022 18.9982 18.6022 18.7526C18.6022 18.507 18.8056 18.3157 19.036 18.3157ZM18.8464 18.4589V19.0594H18.9622V18.8213H19.0639C19.1047 18.8213 19.118 18.8349 19.1248 18.8689C19.1248 18.8759 19.145 19.0259 19.145 19.0531H19.2669C19.2533 19.0259 19.2465 18.9439 19.2397 18.8961C19.2331 18.8211 19.2265 18.7664 19.145 18.7596C19.1858 18.7458 19.2535 18.7254 19.2535 18.6162C19.2535 18.4592 19.1176 18.4592 19.0501 18.4592L18.8464 18.4589ZM18.9483 18.5546H19.043C19.0772 18.5546 19.1311 18.5546 19.1311 18.6364C19.1311 18.6636 19.118 18.7186 19.043 18.7186H18.9481L18.9483 18.5546ZM15.5569 19.0257C14.7835 19.0257 14.3222 19.3533 14.3222 19.9062C14.3222 20.5001 14.7835 20.6632 15.5229 20.7385C16.4112 20.8273 16.4792 20.9571 16.4792 21.1346C16.4792 21.4416 16.2345 21.5714 15.6647 21.5714C14.9457 21.5714 14.7898 21.3938 14.7354 21.0321C14.7354 20.9911 14.7022 20.9642 14.6614 20.9642H14.3086C14.2871 20.9644 14.2665 20.9731 14.2513 20.9885C14.2362 21.0038 14.2276 21.0244 14.2276 21.046C14.2276 21.51 14.4715 22.0561 15.6589 22.0561C16.5132 22.0561 17.0084 21.7144 17.0084 21.1139C17.0084 20.5268 16.6147 20.37 15.7808 20.2608C14.9394 20.1516 14.8515 20.0902 14.8515 19.8924C14.8515 19.7286 14.926 19.5104 15.5499 19.5104C16.1061 19.5104 16.3161 19.6334 16.3976 20.0086C16.4017 20.0256 16.4112 20.0407 16.4247 20.0517C16.4383 20.0627 16.455 20.069 16.4724 20.0696H16.8317C16.8523 20.0696 16.8727 20.0562 16.8865 20.0426C16.8991 20.0245 16.9061 20.003 16.9065 19.981C16.8523 19.3259 16.4253 19.0257 15.5569 19.0257Z" fill="#5FA04E"/>
<path d="M20.1731 5.78065C20.1443 5.78033 20.1159 5.78752 20.0906 5.80151C20.0644 5.81679 20.0425 5.83858 20.0271 5.86477C20.0117 5.89096 20.0033 5.92067 20.0027 5.95104V10.3875C20.0027 10.4283 19.9817 10.4696 19.9411 10.4967C19.9224 10.5068 19.9014 10.5121 19.8802 10.5121C19.8589 10.5121 19.838 10.5068 19.8192 10.4967L19.1006 10.0807C19.0479 10.0505 18.9882 10.0346 18.9274 10.0346C18.8667 10.0346 18.807 10.0505 18.7542 10.0807L15.8789 11.753C15.8257 11.783 15.7814 11.8265 15.7504 11.8792C15.7194 11.9318 15.7029 11.9917 15.7024 12.0528V15.3903C15.7024 15.5131 15.7704 15.6293 15.8789 15.6907L18.7547 17.363C18.8074 17.3932 18.8671 17.409 18.9278 17.409C18.9885 17.409 19.0482 17.3932 19.1009 17.363L21.9764 15.6907C22.0849 15.6293 22.1529 15.5131 22.1529 15.3903V7.07065C22.1529 6.94104 22.0849 6.82456 21.9764 6.76338L20.2608 5.80151C20.2337 5.78788 20.2035 5.78074 20.1731 5.78065ZM3.2079 9.94456C3.15376 9.94456 3.09962 9.96424 3.05228 9.99143L0.176494 11.6576C0.122496 11.6884 0.0776814 11.7331 0.0466626 11.7869C0.0156439 11.8408 -0.000459286 11.902 9.97012e-06 11.9642L0.00704122 16.4412C0.00704122 16.5028 0.0405568 16.5642 0.0949318 16.5917C0.120095 16.6083 0.149602 16.6172 0.179776 16.6172C0.209949 16.6172 0.239456 16.6083 0.264619 16.5917L1.97415 15.6089C2.08267 15.5475 2.14993 15.4313 2.14993 15.3085V13.2131C2.14993 13.0903 2.2179 12.9741 2.32665 12.9127L3.05228 12.4896C3.10642 12.4554 3.16782 12.4418 3.22876 12.4418C3.2897 12.4418 3.35087 12.4554 3.39845 12.4896L4.12407 12.9127C4.23259 12.9741 4.30056 13.0903 4.30056 13.2131V15.3085C4.30056 15.4313 4.36806 15.5475 4.47634 15.6089L6.17228 16.5917C6.19867 16.6084 6.22928 16.6172 6.26052 16.6172C6.29176 16.6172 6.32236 16.6084 6.34876 16.5917C6.37569 16.5769 6.39811 16.5551 6.41363 16.5286C6.42915 16.5021 6.43719 16.4719 6.43688 16.4412V11.9642C6.43688 11.8414 6.36892 11.7251 6.26017 11.6635L3.39142 9.99143C3.34317 9.96558 3.29027 9.94956 3.23579 9.94432L3.2079 9.94456ZM26.8017 9.99377C26.7424 9.99377 26.6836 10.0092 26.6292 10.0402L23.753 11.7115C23.6445 11.7729 23.5772 11.8892 23.5772 12.0122V15.3497C23.5772 15.4725 23.6445 15.5888 23.753 15.6502L26.6086 17.2878C26.66 17.3179 26.7186 17.3338 26.7782 17.3338C26.8378 17.3338 26.8963 17.3179 26.9477 17.2878L28.6774 16.3191C28.7043 16.3043 28.7267 16.2825 28.7422 16.256C28.7576 16.2295 28.7656 16.1993 28.7653 16.1686C28.7656 16.138 28.7575 16.1079 28.742 16.0815C28.7266 16.0551 28.7042 16.0334 28.6774 16.0186L25.7883 14.3461C25.762 14.3307 25.7401 14.3088 25.7247 14.2825C25.7094 14.2562 25.701 14.2264 25.7004 14.1959V13.1515C25.7001 13.1209 25.7081 13.0907 25.7235 13.0643C25.739 13.0379 25.7614 13.0162 25.7883 13.0015L26.6906 12.4826C26.717 12.4659 26.7476 12.4571 26.7789 12.4571C26.8101 12.4571 26.8407 12.4659 26.8671 12.4826L27.7685 13.0013C27.7949 13.0167 27.8169 13.0385 27.8324 13.0648C27.8479 13.0911 27.8564 13.121 27.8571 13.1515V13.9707C27.8571 14.0323 27.8909 14.0937 27.945 14.1209C27.9714 14.1376 28.0021 14.1465 28.0334 14.1465C28.0647 14.1465 28.0953 14.1376 28.1217 14.1209L29.8306 13.1178C29.883 13.0872 29.9263 13.0432 29.9561 12.9904C29.9859 12.9375 30.0012 12.8777 30.0002 12.8171V12.0049C30.0002 11.8821 29.9323 11.7666 29.8306 11.7049L26.9749 10.0399C26.9223 10.0098 26.8627 9.99381 26.802 9.99354L26.8017 9.99377ZM18.9274 12.4861C18.9427 12.4861 18.9581 12.4896 18.972 12.4967L19.9549 13.0699C19.9821 13.0835 19.9959 13.1173 19.9959 13.1447V14.2913C19.9959 14.3255 19.9821 14.3532 19.9549 14.3667L18.9717 14.94C18.9579 14.9468 18.9428 14.9503 18.9274 14.9503C18.9121 14.9503 18.8969 14.9468 18.8831 14.94L17.8999 14.3667C17.8727 14.3532 17.8589 14.3187 17.8589 14.2913V13.1447C17.8589 13.1105 17.873 13.0835 17.8999 13.0697L18.8831 12.4967C18.897 12.4897 18.912 12.4861 18.9274 12.4861Z" fill="#333333"/>
<path d="M11.2458 10.053C11.1932 10.0228 11.1335 10.007 11.0728 10.007C11.0121 10.007 10.9525 10.0228 10.8999 10.053L8.04424 11.7117C7.99184 11.7422 7.9485 11.786 7.91868 11.8388C7.88885 11.8916 7.87362 11.9513 7.87455 12.0119V15.3356C7.87455 15.4586 7.94252 15.5747 8.04424 15.6361L10.8999 17.2945C10.9525 17.3247 11.0121 17.3406 11.0728 17.3406C11.1335 17.3406 11.1932 17.3247 11.2458 17.2945L14.1012 15.6361C14.2097 15.5747 14.2709 15.4586 14.2709 15.3356V12.0119C14.2709 11.8891 14.2029 11.7729 14.1012 11.7117L11.2458 10.053Z" fill="url(#paint0_linear_2_58)"/>
<path d="M14.1079 11.7117L11.2389 10.053C11.2108 10.0388 11.1813 10.0274 11.1508 10.019L7.93567 15.554C7.96286 15.5883 7.99661 15.6154 8.03059 15.6361L10.8998 17.2945C10.9811 17.3423 11.0761 17.3559 11.1642 17.3285L14.1827 11.7731C14.1628 11.7471 14.1373 11.7261 14.1079 11.7117Z" fill="url(#paint1_linear_2_58)"/>
<path d="M14.1079 15.6359C14.1895 15.5881 14.2504 15.5063 14.2776 15.4174L11.137 10.012C11.0559 9.99844 10.9675 10.0052 10.893 10.0531L8.04419 11.7047L11.1168 17.3421C11.1574 17.3353 11.205 17.3217 11.2458 17.3011L14.1079 15.6359Z" fill="url(#paint2_linear_2_58)"/>
</g>
</g>
<defs>
<linearGradient id="paint0_linear_2_58" x1="12.2357" y1="11.2881" x2="9.62779" y2="16.5751" gradientUnits="userSpaceOnUse">
<stop stop-color="#3F873F"/>
<stop offset="0.33" stop-color="#3F8B3D"/>
<stop offset="0.637" stop-color="#3E9638"/>
<stop offset="0.934" stop-color="#3DA92E"/>
<stop offset="1" stop-color="#3DAE2B"/>
</linearGradient>
<linearGradient id="paint1_linear_2_58" x1="10.6388" y1="14.0619" x2="17.9151" y2="8.71889" gradientUnits="userSpaceOnUse">
<stop offset="0.138" stop-color="#3F873F"/>
<stop offset="0.402" stop-color="#52A044"/>
<stop offset="0.713" stop-color="#64B749"/>
<stop offset="0.908" stop-color="#6ABF4B"/>
</linearGradient>
<linearGradient id="paint2_linear_2_58" x1="7.77004" y1="13.6727" x2="14.3776" y2="13.6727" gradientUnits="userSpaceOnUse">
<stop offset="0.092" stop-color="#6ABF4B"/>
<stop offset="0.287" stop-color="#64B749"/>
<stop offset="0.598" stop-color="#52A044"/>
<stop offset="0.862" stop-color="#3F873F"/>
</linearGradient>
<clipPath id="clip0_2_58">
<rect width="30" height="30" fill="white"/>
</clipPath>
<clipPath id="clip1_2_58">
<rect width="30" height="30" fill="white"/>
</clipPath>
</defs>
</svg>
