<svg width="30" height="30" viewBox="0 0 30 30" fill="none" xmlns="http://www.w3.org/2000/svg">
<path fill-rule="evenodd" clip-rule="evenodd" d="M28.8886 17.9963C28.7831 17.3123 28.2087 16.8645 27.5405 16.8342C27.2986 16.8232 27.053 16.8485 26.8118 16.8792C26.5205 16.9163 26.2327 16.9819 25.942 17.0252C25.7412 17.0552 25.5375 17.0691 25.3369 17.0897L25.332 17.0637C25.7065 16.3563 26.0967 15.6567 26.4511 14.9393C26.7227 14.389 26.9552 13.8188 27.1955 13.2532C27.593 12.3162 27.9105 11.3501 28.1735 10.3683C28.4255 9.4282 28.6411 8.47781 28.7088 7.50258C28.736 7.11305 28.7548 6.72188 28.7527 6.33188C28.7508 6.02086 28.7173 5.70938 28.6861 5.3993C28.6509 5.04398 28.5436 4.70719 28.395 4.38305C28.1991 3.95602 27.8953 3.60562 27.5756 3.27281C27.3197 3.00633 27.0382 2.76352 26.7591 2.52094C26.3611 2.17477 25.9137 1.89844 25.4489 1.65305C24.9224 1.37328 24.3646 1.15693 23.7872 1.00852C23.4373 0.919219 23.0794 0.852891 22.725 0.782109C22.5975 0.756328 22.4698 0.703125 22.3423 0.703125H19.942C19.8553 0.703125 19.7693 0.747891 19.6819 0.757734C19.1072 0.821719 18.5393 0.93 17.9878 1.10086C17.7816 1.16484 17.5931 1.12453 17.3972 1.10648C17.247 1.09266 17.0993 1.05234 16.9491 1.04484C16.3767 1.01625 15.8037 0.974297 15.2316 0.980391C14.6834 0.986016 14.1408 1.07625 13.6102 1.22695C13.166 1.35305 12.7315 1.50703 12.3335 1.74047C12.1631 1.84031 12.0281 1.82156 11.8519 1.7707C11.2596 1.59984 10.6631 1.4393 10.0615 1.30453C9.68648 1.22062 9.30094 1.17891 8.91797 1.13883C8.55048 1.10064 8.18157 1.07765 7.81219 1.06992C7.45172 1.06219 7.08867 1.06242 6.72984 1.0943C6.15831 1.14398 5.59494 1.26306 5.05219 1.44891C4.45108 1.65415 3.88942 1.96051 3.39141 2.35477C2.88352 2.75672 2.47617 3.2475 2.14852 3.80789C1.80328 4.39922 1.56656 5.03227 1.41938 5.69719C1.33969 6.05742 1.2893 6.42773 1.23469 6.79359C1.21758 6.9075 1.40625 7.02141 1.17188 7.13484V8.72719C1.40625 8.83313 1.22062 8.93883 1.23422 9.045C1.2668 9.30023 1.29562 9.55758 1.33875 9.81094C1.40695 10.212 1.48781 10.6118 1.57031 11.0102C1.68487 11.5671 1.80566 12.1227 1.93266 12.6769C2.02547 13.08 2.13117 13.4808 2.2418 13.8795C2.41078 14.4884 2.57719 15.0984 2.7682 15.7005C2.94562 16.26 3.14883 16.8115 3.35039 17.363C3.62953 18.1259 3.96375 18.8641 4.36453 19.5717C4.71117 20.1844 5.10727 20.7581 5.63859 21.2302C5.98875 21.5412 6.37852 21.7802 6.83227 21.8998C7.18875 21.9935 7.55109 22.0048 7.91602 21.93C8.33178 21.8454 8.72018 21.6594 9.04664 21.3884C9.08484 21.357 9.1268 21.333 9.17203 21.3907C9.3443 21.6089 9.57492 21.7545 9.81609 21.8803C10.467 22.2197 11.1762 22.3214 11.8966 22.3629C12.071 22.373 12.2473 22.3479 12.423 22.343C12.7655 22.3336 13.0983 22.2668 13.4257 22.1721C13.5973 22.1224 13.7648 22.0594 13.9395 22.0005C13.9486 22.1864 13.9603 22.3655 13.9657 22.5445L13.9901 23.5209C13.9945 23.6695 14.0004 23.8186 14.0142 23.9665C14.0496 24.3478 14.0843 24.7294 14.1298 25.1095C14.1614 25.3716 14.1942 25.6357 14.2559 25.8914C14.3794 26.4076 14.5487 26.9118 14.7616 27.398C14.9655 27.8699 15.2788 28.2865 15.6757 28.6132C16.196 29.0435 16.8059 29.227 17.4645 29.261C17.7368 29.2753 18.0169 29.262 18.285 29.2132C18.7112 29.1375 19.1327 29.0377 19.5476 28.9144C20.3892 28.6603 21.1167 28.2216 21.6602 27.5126C21.9696 27.1085 22.2237 26.6714 22.3868 26.1888C22.5213 25.7902 22.6481 25.3875 22.7489 24.9795C22.8286 24.6579 22.868 24.3263 22.9165 23.9979C22.9486 23.7806 22.9678 23.5613 22.988 23.3423C23.0208 22.9868 23.0543 22.6315 23.078 22.2752C23.0944 22.0273 23.0937 21.7781 23.1035 21.5297C23.1066 21.454 23.1187 21.3787 23.1258 21.3033C23.1323 21.2334 23.1675 21.2093 23.2388 21.2105C23.4898 21.2142 23.7412 21.2208 23.9916 21.2095C24.2721 21.1969 24.5552 21.1849 24.8313 21.1385C25.2247 21.0728 25.615 20.9894 26.0009 20.8884C26.4562 20.7694 26.8739 20.5561 27.2759 20.313C27.7441 20.0302 28.1709 19.6983 28.5173 19.2708C28.8185 18.8979 28.9613 18.4669 28.8886 17.9963ZM28.0889 18.2264C28.0734 18.4409 27.9752 18.6246 27.8327 18.7816C27.1603 19.523 26.3168 19.9727 25.3519 20.1942C24.9853 20.2781 24.607 20.3217 24.2318 20.3564C23.9112 20.3846 23.5891 20.3922 23.2676 20.3791C23.0318 20.3702 22.7979 20.3163 22.557 20.2816C22.5328 20.502 22.5098 20.7314 22.482 20.9604L22.3697 21.8381C22.3357 22.1163 22.3092 22.3955 22.2743 22.6734C22.2401 22.9432 22.1974 23.212 22.1616 23.4818C22.128 23.733 22.1034 23.9855 22.0662 24.2362C22.0088 24.6206 21.9539 25.0059 21.8789 25.3873C21.7889 25.8431 21.6509 26.2847 21.4256 26.6958C21.1509 27.1976 20.7614 27.5798 20.2657 27.863C19.7548 28.155 19.1962 28.3069 18.63 28.4339C18.2292 28.5239 17.8162 28.5387 17.4103 28.5021C16.7062 28.4384 16.1053 28.1372 15.6511 27.5913C15.2175 27.0703 14.9241 26.4731 14.8191 25.7972C14.77 25.4754 14.7317 25.1521 14.704 24.8278C14.6729 24.4674 14.6495 24.1064 14.6339 23.745C14.6131 23.2865 14.5977 22.8278 14.5877 22.369C14.5753 21.8051 14.5713 21.2412 14.5634 20.6773L14.562 20.6557C14.2751 20.8277 13.9931 21.0162 13.6941 21.1713C13.3446 21.3521 12.962 21.46 12.5695 21.4884C12.2606 21.5119 11.9477 21.5332 11.6402 21.5086C11.1361 21.468 10.6324 21.3891 10.181 21.1409C9.99797 21.0401 9.80695 20.9175 9.68086 20.7565C9.37852 20.3707 9.52336 19.8832 9.97922 19.6486C10.2942 19.4862 10.638 19.4184 10.9795 19.3395C11.2768 19.272 11.5709 19.1916 11.861 19.0983C12.1474 19.0045 12.3281 18.7723 12.5065 18.5445L12.7891 18.1809C12.6713 18.1685 12.5602 18.1559 12.4491 18.1455C12.1118 18.1137 11.79 18.0209 11.4823 17.8845C11.2188 17.768 11.2148 17.7553 11.0217 17.9648C10.6992 18.315 10.3856 18.6734 10.0697 19.0294C9.83719 19.2912 9.60609 19.5546 9.37477 19.8171C9.14555 20.0768 8.93086 20.3512 8.68406 20.5929C8.3175 20.9517 7.8757 21.1676 7.34859 21.1432C7.01039 21.1277 6.70078 21.0091 6.42234 20.8153C5.84766 20.415 5.46047 19.8551 5.10797 19.267C4.65633 18.5135 4.30969 17.7108 4.01297 16.886C3.80766 16.316 3.60141 15.7455 3.42211 15.1673C3.22734 14.539 3.05648 13.9027 2.88844 13.2666C2.76291 12.786 2.64711 12.3029 2.54109 11.8177C2.41748 11.2666 2.30309 10.7134 2.19797 10.1585C2.12813 9.78375 2.08758 9.40359 2.03109 9.02625C1.95492 8.51766 1.94086 8.00437 1.96852 7.49367C1.99313 7.03359 2.05922 6.57469 2.12484 6.11766C2.21578 5.48531 2.42414 4.88859 2.72391 4.32516C2.90742 3.97992 3.13523 3.66609 3.39867 3.37453C3.83109 2.89594 4.35445 2.55 4.93664 2.29031C5.34352 2.10891 5.77336 1.99969 6.21141 1.91438C6.86156 1.78781 7.51758 1.79273 8.17383 1.80633C8.4607 1.81219 8.74641 1.86445 9.03305 1.89281C9.65016 1.95422 10.2551 2.08406 10.8523 2.24437C11.2875 2.36109 11.7138 2.51227 12.1455 2.64352C12.1889 2.65664 12.2524 2.65547 12.2878 2.63227C12.8728 2.25047 13.5122 1.99852 14.1921 1.85438C14.4502 1.79977 14.7164 1.77586 14.9803 1.75898C15.3012 1.73859 15.6246 1.71984 15.9448 1.73836C16.3296 1.76039 16.7126 1.81711 17.0951 1.86961C17.2807 1.89492 17.4619 1.95938 17.648 1.97695C17.737 1.98539 17.8315 1.92023 17.9257 1.89844C18.4059 1.78758 18.8841 1.66406 19.3685 1.57641C19.7292 1.51125 20.0977 1.48055 20.4645 1.45945C20.8734 1.43602 21.2855 1.41891 21.6942 1.43859C22.2118 1.46423 22.726 1.53663 23.2305 1.65492C23.858 1.80094 24.4598 2.01305 25.032 2.30742C25.4595 2.52727 25.8659 2.78227 26.2317 3.09586C26.4715 3.30164 26.7169 3.50484 26.9334 3.73406C27.2006 4.01672 27.4732 4.29961 27.6408 4.66172C27.7669 4.93477 27.8569 5.21742 27.8817 5.51648C27.9127 5.8882 27.9502 6.26133 27.9466 6.63352C27.9434 6.98953 27.8948 7.34531 27.8604 7.70039C27.7821 8.50992 27.6061 9.30188 27.3923 10.0833C27.2135 10.7288 27.0111 11.3675 26.7855 11.9981C26.5795 12.5796 26.3419 13.1505 26.1016 13.7191C25.9248 14.1403 25.7326 14.5549 25.5255 14.962C25.1325 15.7322 24.7238 16.4944 24.251 17.2198C24.1695 17.3452 24.0921 17.4736 24.0124 17.6016C24.2187 17.7408 24.4523 17.7898 24.6877 17.8151C24.9115 17.8395 25.1398 17.854 25.3634 17.8373C25.7213 17.8109 26.078 17.7598 26.4338 17.7098C26.7862 17.6606 27.1317 17.5603 27.4936 17.5868C27.855 17.613 28.1135 17.8877 28.0889 18.2264ZM22.9296 17.4405C22.7761 17.2423 22.6195 17.0463 22.4693 16.8457C22.2335 16.5307 22.0641 16.1789 21.8939 15.8255C21.7327 15.4905 21.5348 15.1734 21.3649 14.8423C21.0684 14.2645 20.7666 13.6887 20.4935 13.0997C20.1502 12.3598 19.8795 11.5936 19.7941 10.774C19.758 10.4271 19.7489 10.0807 19.819 9.73711C19.9312 9.18844 20.2179 8.7593 20.6998 8.46492C21.1467 8.19187 21.6448 8.10375 22.155 8.07609C22.4716 8.05898 22.7897 8.07305 23.1183 8.07305L23.1073 8.0175C22.9029 7.59023 22.7119 7.1557 22.4883 6.73852C22.1728 6.14977 21.7692 5.61891 21.3197 5.12672C20.9866 4.76227 20.6259 4.42406 20.2308 4.12523C19.8422 3.83109 19.4327 3.56836 18.9959 3.35344C18.4748 3.09727 17.9323 2.89922 17.363 2.77289C16.8159 2.65148 16.2654 2.57719 15.7043 2.57109C15.2257 2.56594 14.7502 2.5875 14.284 2.69555C13.5804 2.85844 12.9368 3.14812 12.3769 3.61734C12.0671 3.87715 11.7903 4.17388 11.5526 4.50094C11.2723 4.88602 11.0461 5.3018 10.8527 5.73773C10.5874 6.33586 10.4053 6.95836 10.2809 7.5982C10.2185 7.91719 10.1698 8.23898 10.1201 8.56055C10.1027 8.67305 10.1013 8.78813 10.0912 8.91703C10.1777 8.87203 10.2401 8.83734 10.3038 8.80641L10.5112 8.71336C11.2127 8.3925 11.9395 8.18602 12.7207 8.20969C13.0526 8.21977 13.3702 8.28539 13.6652 8.4307C14.2312 8.70984 14.5624 9.18445 14.7063 9.78516C14.8057 10.1998 14.8737 10.6226 14.9398 11.0442C14.9916 11.3735 15.0445 11.7063 15.0506 12.0384C15.0593 12.5238 15.0347 13.0102 15.0082 13.4953C14.9855 13.9079 14.9001 14.3145 14.7551 14.7014C14.4926 15.4029 14.2001 16.0929 13.9268 16.7904C13.8366 17.0208 13.7672 17.2594 13.6819 17.5127C13.8136 17.5127 13.9205 17.5118 14.0273 17.5132C14.0691 17.5139 14.1117 17.5151 14.152 17.5247C14.4661 17.5988 14.7384 17.741 14.9618 17.9827C15.2597 18.3042 15.416 18.6795 15.424 19.1138C15.4284 19.3545 15.4031 19.5959 15.4043 19.8366C15.4092 20.9583 15.4177 22.08 15.427 23.2015C15.4287 23.3848 15.4378 23.5683 15.4509 23.7513C15.4784 24.1345 15.506 24.518 15.5435 24.9002C15.5698 25.1714 15.6063 25.4421 15.6492 25.7114C15.7099 26.093 15.8836 26.4326 16.0807 26.7572C16.2504 27.0363 16.4709 27.2735 16.7616 27.4371C17.2554 27.7151 17.7872 27.7383 18.3232 27.6359C18.6853 27.5667 19.0409 27.4556 19.3924 27.341C19.7381 27.2301 20.0538 27.0414 20.3152 26.7893C20.5615 26.5505 20.7363 26.2594 20.8542 25.938C21.083 25.3148 21.1542 24.6586 21.2489 24.0075C21.2843 23.7638 21.315 23.5193 21.3473 23.2751C21.3841 22.9971 21.4214 22.7194 21.457 22.4416C21.4833 22.2347 21.5072 22.0273 21.5325 21.8203C21.5686 21.5231 21.6068 21.2262 21.6413 20.9287C21.6677 20.6988 21.6902 20.468 21.7137 20.2376C21.7439 19.9432 21.7765 19.6488 21.8025 19.354C21.8227 19.1302 21.8145 18.9023 21.8541 18.6827C21.927 18.2801 22.1173 17.9374 22.4742 17.7159C22.6235 17.6234 22.792 17.5624 22.9577 17.4841L22.9296 17.4405ZM9.43031 15.7877C9.2523 15.3691 9.14506 14.9238 9.11297 14.4701C9.08297 14.0423 9.13383 13.6163 9.17766 13.1904C9.22031 12.7779 9.2557 12.3635 9.26812 11.9491C9.28875 11.268 9.24281 10.5879 9.21023 9.90727C9.19055 9.50203 9.23766 9.09187 9.27375 8.6857C9.30633 8.31984 9.34688 7.95305 9.41602 7.59258C9.53203 6.98766 9.68602 6.39141 9.90492 5.81344C10.1128 5.26547 10.3516 4.7318 10.6889 4.25133C10.92 3.9218 11.1823 3.61383 11.4342 3.2918L11.3595 3.26531C10.5396 3.00492 9.70641 2.80148 8.84953 2.71266C8.4443 2.6707 8.03766 2.64609 7.63125 2.62195C7.50656 2.61445 7.38 2.63133 7.25484 2.64328C6.945 2.67281 6.63141 2.68453 6.32648 2.74266C5.80758 2.84133 5.30977 3.00727 4.84875 3.2775C4.43484 3.52008 4.08727 3.83367 3.79617 4.20984C3.47461 4.62516 3.25828 5.09484 3.10289 5.5957C2.91938 6.18656 2.83195 6.79453 2.80828 7.40812C2.78766 7.94602 2.77734 8.48695 2.87016 9.02273C2.9393 9.42164 2.98547 9.82477 3.06164 10.222C3.16547 10.7637 3.2768 11.3041 3.40547 11.8402C3.58945 12.6075 3.7732 13.376 3.99117 14.134C4.19977 14.8603 4.43508 15.5801 4.69008 16.2912C4.89867 16.8715 5.13984 17.441 5.39391 18.003C5.55937 18.3691 5.75977 18.7214 5.96977 19.0643C6.19313 19.4283 6.44719 19.7738 6.79195 20.0379C7.22695 20.3714 7.56375 20.4232 8.00578 20.0573C8.19516 19.9005 8.35523 19.707 8.52 19.5225C8.7818 19.2295 9.03445 18.9286 9.29508 18.6347C9.62695 18.2602 9.96305 17.8896 10.2966 17.517C10.3671 17.4382 10.4348 17.3571 10.5035 17.2774L10.3901 17.1778C9.97818 16.7852 9.65148 16.312 9.43031 15.7877ZM22.0134 4.63875C22.2861 4.95578 22.5449 5.28453 22.789 5.62406C23.2577 6.28242 23.6323 6.99328 23.9081 7.75383C24.0302 8.08898 24.1277 8.42742 24.0841 8.79422C24.0539 9.05109 24.0565 9.31172 24.0338 9.57C24.0148 9.78492 23.9808 9.99867 23.9529 10.2129C23.9112 10.5359 23.8507 10.8579 23.8327 11.1823C23.8155 11.4909 23.8334 11.8029 23.8528 12.1123C23.8725 12.4266 23.9149 12.7395 23.9438 13.0533C23.9763 13.4091 24.0202 13.7648 24.0302 14.1213C24.0384 14.4141 24.0124 14.7087 23.9869 15.0009C23.9564 15.353 23.8671 15.6938 23.734 16.0207C23.6405 16.2509 23.5287 16.474 23.423 16.7044L23.4654 16.7494L23.5298 16.7993L23.5948 16.683C24.143 15.8202 24.6303 14.9201 25.053 13.9894C25.3235 13.3885 25.5804 12.7817 25.8234 12.1692C26.2041 11.2167 26.5052 10.2375 26.7382 9.23883C26.8427 8.79047 26.9227 8.33531 26.9937 7.88016C27.049 7.52438 27.0952 7.16437 27.1055 6.80531C27.1165 6.42445 27.0954 6.04055 27.0602 5.66062C27.034 5.37375 26.9632 5.085 26.7834 4.8518C26.4945 4.47633 26.1825 4.11727 25.7988 3.8332C25.4759 3.59391 25.1541 3.34852 24.8074 3.14719C24.2578 2.82844 23.663 2.61609 23.0414 2.47148C22.4348 2.33016 21.8203 2.26922 21.2018 2.25633C20.8371 2.24859 20.4708 2.28773 20.1068 2.32195C19.777 2.35289 19.4494 2.40562 19.1173 2.44922C19.4735 2.64961 19.8248 2.82773 20.1562 3.03773C20.853 3.47906 21.4774 4.01016 22.0134 4.63875ZM12.9607 16.9955C13.1859 16.2752 13.4927 15.5876 13.7899 14.8957C14.0309 14.3346 14.1626 13.7435 14.2064 13.1365C14.2282 12.8372 14.2221 12.5341 14.2073 12.2339C14.1927 11.8999 14.162 11.5668 14.1155 11.2357C14.0531 10.8136 13.9821 10.3913 13.8823 9.97688C13.774 9.52852 13.5009 9.21633 13.0331 9.10125C12.7481 9.03117 12.465 9.03398 12.177 9.07945C11.4734 9.19031 10.8293 9.44953 10.2293 9.82922C10.1086 9.90563 10.0423 9.96727 10.0631 10.1405C10.1072 10.5073 10.1168 10.8799 10.1152 11.2502C10.1128 11.7743 10.0905 12.2984 10.0706 12.8222C10.0641 12.9928 10.0395 13.1625 10.0212 13.3324C9.99305 13.5926 9.93891 13.8525 9.94055 14.1122C9.94219 14.3798 9.96961 14.6538 10.0345 14.913C10.2408 15.735 10.6777 16.4077 11.3937 16.8823C11.8341 17.1741 12.3213 17.3213 12.8562 17.3491C12.8925 17.2263 12.9248 17.1103 12.9607 16.9955ZM12.1202 9.94383C12.026 9.74602 12.0799 9.58219 12.2984 9.50625C12.3516 9.4875 12.4064 9.46758 12.4617 9.46219C12.5377 9.45469 12.615 9.46031 12.6919 9.46031C12.9689 9.46172 13.2354 9.50039 13.4641 9.67664C13.6109 9.78961 13.6502 9.93961 13.5553 10.0936C13.4205 10.312 13.215 10.4217 12.9626 10.4428C12.5648 10.4759 12.2857 10.2905 12.1202 9.94383ZM23.1452 9.87164C23.1771 9.6082 23.2027 9.34406 23.2352 9.08062C23.2484 8.97469 23.1926 8.94609 23.1037 8.94352C22.8244 8.93578 22.545 8.92594 22.2656 8.92078C21.9506 8.91516 21.6441 8.96578 21.3525 9.08555C21.0291 9.21867 20.7827 9.43195 20.6822 9.78398C20.6086 10.0436 20.5853 10.3149 20.6135 10.5832C20.6527 10.9982 20.7467 11.4061 20.8931 11.7963C21.0886 12.3169 21.2932 12.8372 21.5377 13.3359C21.8688 14.0112 22.2436 14.6648 22.5954 15.3298C22.6894 15.5072 22.7684 15.6923 22.8663 15.8995C23.0639 15.4876 23.1718 15.0385 23.183 14.5819C23.1926 14.2045 23.1623 13.8255 23.1403 13.448C23.1265 13.2169 23.0939 12.9872 23.0714 12.7566C23.04 12.4352 22.9924 12.1141 22.9852 11.7921C22.9779 11.4647 23.0011 11.1354 23.0292 10.8084C23.0557 10.4948 23.1075 10.1838 23.1452 9.87164ZM22.515 9.61805C22.4112 9.90469 22.1892 10.0664 21.9014 10.114C21.633 10.158 21.398 10.0589 21.2231 9.84492C21.0987 9.69258 21.1462 9.51211 21.3328 9.40922C21.547 9.29062 21.7826 9.26062 22.0603 9.24258C22.1358 9.25641 22.2495 9.26789 22.3575 9.29883C22.5143 9.34312 22.5722 9.46102 22.515 9.61805ZM14.213 18.4446C14.0595 18.3192 13.8565 18.312 13.7105 18.4495C13.5293 18.6206 13.3699 18.8163 13.2105 19.0092C13.0266 19.2321 12.8541 19.4639 12.6166 19.6366C12.2712 19.8877 11.8685 19.9917 11.4637 20.0902C11.142 20.1684 10.8188 20.2411 10.496 20.3163L10.492 20.358C10.5879 20.4023 10.6807 20.4577 10.7805 20.4893C11.2727 20.6452 11.7734 20.7227 12.2934 20.6787C12.6689 20.6468 13.0266 20.565 13.3655 20.4042C13.8319 20.1832 14.1907 19.833 14.4959 19.4257C14.547 19.3577 14.5702 19.2572 14.5763 19.1695C14.5971 18.8599 14.4398 18.6298 14.213 18.4446ZM26.3421 18.5679C25.946 18.6103 25.5495 18.6553 25.1522 18.678C24.9605 18.6891 24.7659 18.6525 24.5723 18.6368C24.2477 18.6105 23.9309 18.5384 23.6564 18.3649C23.4975 18.2648 23.3655 18.2536 23.1968 18.3103C22.9559 18.3914 22.7592 18.5147 22.7011 18.7758C22.6615 18.9523 22.6472 19.1351 22.6312 19.3158C22.6282 19.3477 22.668 19.4062 22.6985 19.4142C22.8844 19.4632 23.0712 19.5211 23.2612 19.5382C23.4947 19.5593 23.7323 19.5525 23.9674 19.5408C24.2213 19.5281 24.4767 19.5117 24.7268 19.4695C25.3162 19.3706 25.8865 19.2094 26.393 18.8752C26.5755 18.7545 26.7565 18.6312 26.9379 18.5091L26.9229 18.4833C26.7293 18.5121 26.5366 18.5473 26.3421 18.5679Z" fill="#336791"/>
</svg>
