<svg width="59" height="59" viewBox="0 0 59 59" fill="none" xmlns="http://www.w3.org/2000/svg">
<path d="M29.5 34.7547C32.4021 34.7547 34.7547 32.4021 34.7547 29.5C34.7547 26.598 32.4021 24.2454 29.5 24.2454C26.5979 24.2454 24.2453 26.598 24.2453 29.5C24.2453 32.4021 26.5979 34.7547 29.5 34.7547Z" fill="#61DAFB"/>
<path d="M49.4586 20.8344C48.4445 20.4657 47.3844 20.0969 46.2781 19.7743C46.5547 18.668 46.7852 17.5618 46.9695 16.5016C47.9375 10.4172 46.8774 6.13052 43.9274 4.47114C43.0516 3.96411 42.0836 3.73364 40.9774 3.73364C37.7508 3.73364 33.6484 6.13052 29.5 10.1407C25.3516 6.13052 21.2492 3.73364 18.0227 3.73364C16.9164 3.73364 15.9485 3.96411 15.0727 4.47114C12.1227 6.17661 11.0625 10.4633 12.0305 16.5016C12.2149 17.5618 12.4453 18.668 12.7219 19.7743C11.6156 20.0969 10.5555 20.4196 9.54142 20.8344C3.7797 23.0469 0.645325 26.0891 0.645325 29.5C0.645325 32.911 3.82579 35.9532 9.54142 38.1657C10.5555 38.5344 11.6156 38.9032 12.7219 39.2258C12.4453 40.3321 12.2149 41.4383 12.0305 42.4985C11.0625 48.5829 12.1227 52.8696 15.0727 54.529C15.9485 55.036 16.9164 55.2665 18.0227 55.2665C21.2953 55.2665 25.3977 52.8696 29.5 48.8594C33.6484 52.8696 37.7508 55.2665 40.9774 55.2665C42.0836 55.2665 43.0516 55.036 43.9274 54.529C46.8774 52.8235 47.9375 48.5368 46.9695 42.4985C46.7852 41.4383 46.5547 40.3321 46.2781 39.2258C47.3844 38.9032 48.4445 38.5805 49.4586 38.1657C55.2203 35.9532 58.3547 32.911 58.3547 29.5C58.3547 26.0891 55.2203 23.0469 49.4586 20.8344ZM42.6367 6.77583C44.5266 7.88208 45.1719 11.293 44.3883 16.1329C44.25 17.1008 44.0195 18.1149 43.743 19.175C41.3461 18.6219 38.8109 18.2532 36.1375 18.0227C34.5703 15.8102 32.957 13.8282 31.3438 12.0305C34.7547 8.66567 38.2117 6.36099 41.0234 6.36099C41.6227 6.36099 42.1758 6.49927 42.6367 6.77583ZM37.4742 34.1094C36.6445 35.5844 35.6766 37.0594 34.6625 38.5344C32.957 38.6727 31.2516 38.7188 29.5 38.7188C27.7024 38.7188 25.9969 38.6727 24.3375 38.5344C23.3234 37.0594 22.4016 35.5844 21.5719 34.1094C20.6961 32.5883 19.8664 31.0211 19.1289 29.5C19.8664 27.979 20.6961 26.4118 21.5719 24.8907C22.4016 23.4157 23.3695 21.9407 24.3836 20.4657C26.0891 20.3274 27.7945 20.2813 29.5461 20.2813C31.3438 20.2813 33.0492 20.3274 34.7086 20.4657C35.7227 21.9407 36.6445 23.4157 37.4742 24.8907C38.35 26.4118 39.1797 27.979 39.9172 29.5C39.1336 31.0211 38.35 32.5422 37.4742 34.1094ZM41.3 32.5883C41.9914 34.2016 42.5445 35.7688 43.0516 37.336C41.4844 37.7047 39.825 37.9813 38.0734 38.2118C38.6266 37.336 39.2258 36.4141 39.7328 35.4461C40.2859 34.4782 40.793 33.5102 41.3 32.5883ZM29.5 45.0797C28.3938 43.8813 27.3336 42.5907 26.3195 41.254C27.3797 41.3 28.4399 41.3461 29.5 41.3461C30.5602 41.3461 31.6203 41.3 32.6805 41.254C31.6664 42.5907 30.6063 43.8813 29.5 45.0797ZM20.9266 38.1657C19.175 37.9352 17.5156 37.6586 15.9484 37.2899C16.4555 35.7688 17.0086 34.1555 17.7 32.5422C18.207 33.4641 18.7141 34.4321 19.2672 35.354C19.8203 36.368 20.3734 37.2438 20.9266 38.1657ZM17.7 26.4118C17.0086 24.7985 16.4555 23.2313 15.9484 21.6641C17.5156 21.2954 19.175 21.0188 20.9266 20.7883C20.3734 21.6641 19.7742 22.586 19.2672 23.554C18.7141 24.5219 18.207 25.4899 17.7 26.4118ZM29.5 13.9204C30.6063 15.1188 31.6664 16.4094 32.6805 17.7461C31.6203 17.7 30.5602 17.654 29.5 17.654C28.4399 17.654 27.3797 17.7 26.3195 17.7461C27.3336 16.4094 28.3938 15.1188 29.5 13.9204ZM39.7328 23.6L38.0734 20.8344C39.825 21.0649 41.4844 21.3415 43.0516 21.7102C42.5445 23.2313 41.9914 24.8446 41.3 26.4579C40.793 25.4899 40.2859 24.5219 39.7328 23.6ZM14.6117 16.1329C13.8281 11.293 14.4734 7.88208 16.3633 6.77583C16.8242 6.49927 17.3774 6.36099 17.9766 6.36099C20.7422 6.36099 24.1992 8.61958 27.6563 12.0305C26.043 13.7821 24.4297 15.8102 22.8625 18.0227C20.1891 18.2532 17.6539 18.668 15.257 19.175C14.9805 18.1149 14.7961 17.1008 14.6117 16.1329ZM3.22657 29.5C3.22657 27.3336 5.85392 25.029 10.4633 23.3235C11.3852 22.9547 12.3992 22.6321 13.4133 22.3555C14.1508 24.6602 15.0727 27.1032 16.1789 29.5461C15.0727 31.9891 14.1047 34.386 13.4133 36.6907C7.05236 34.8469 3.22657 32.0813 3.22657 29.5ZM16.3633 52.2243C14.4734 51.118 13.8281 47.7071 14.6117 42.8672C14.75 41.8993 14.9805 40.8852 15.257 39.8251C17.6539 40.3782 20.1891 40.7469 22.8625 40.9774C24.4297 43.1899 26.043 45.1719 27.6563 46.9696C24.2453 50.3344 20.7883 52.6391 17.9766 52.6391C17.3774 52.6391 16.8242 52.5008 16.3633 52.2243ZM44.3883 42.8672C45.1719 47.7071 44.5266 51.118 42.6367 52.2243C42.1758 52.5008 41.6227 52.6391 41.0234 52.6391C38.2578 52.6391 34.8008 50.3805 31.3438 46.9696C32.957 45.218 34.5703 43.1899 36.1375 40.9774C38.8109 40.7469 41.3461 40.3321 43.743 39.8251C44.0195 40.8852 44.2039 41.8993 44.3883 42.8672ZM48.5367 35.6766C47.6149 36.0454 46.6008 36.368 45.5867 36.6446C44.8492 34.3399 43.9274 31.8969 42.8211 29.454C43.9274 27.011 44.8953 24.6141 45.5867 22.3094C51.9477 24.1532 55.7734 26.9188 55.7734 29.5C55.7734 31.6665 53.1 33.9711 48.5367 35.6766Z" fill="#61DAFB"/>
</svg>
