<svg width="50" height="50" viewBox="0 0 50 50" fill="none" xmlns="http://www.w3.org/2000/svg">
<g clip-path="url(#clip0_81_32)">
<path d="M25.0016 10.0007C18.3348 10.0007 14.1696 13.3328 12.5016 19.9996C15.0008 16.6671 17.9184 15.4175 21.2508 16.2507C23.1535 16.725 24.5133 18.1046 26.0192 19.6335C28.4699 22.1207 31.3067 25 37.5016 25C44.168 25 48.3336 21.6675 50.0016 14.9992C47.502 18.3335 44.5848 19.5832 41.252 18.75C39.3496 18.2753 37.9914 16.896 36.4836 15.3671C34.0344 12.88 31.1985 10.0007 25.0016 10.0007ZM12.5016 25C5.83518 25 1.66956 28.3324 0.00158691 35.0007C2.50081 31.6664 5.41799 30.4167 8.75081 31.25C10.6535 31.7246 12.0133 33.1039 13.5192 34.6328C15.9699 37.1199 18.8067 39.9992 25.0016 39.9992C31.668 39.9992 35.8336 36.6671 37.5016 30.0003C35.002 33.3328 32.0848 34.5824 28.752 33.7492C26.8496 33.275 25.4914 31.8953 23.9836 30.3664C21.5344 27.8792 18.6985 25 12.5016 25Z" fill="#38BDF8"/>
</g>
<defs>
<clipPath id="clip0_81_32">
<rect width="50" height="50" fill="white"/>
</clipPath>
</defs>
</svg>
